<?xml version="1.0" standalone="no"?>
<!DOCTYPE svg PUBLIC "-//W3C//DTD SVG 20010904//EN"
 "http://www.w3.org/TR/2001/REC-SVG-20010904/DTD/svg10.dtd">
<svg version="1.0" xmlns="http://www.w3.org/2000/svg"
 width="512.000000pt" height="512.000000pt" viewBox="0 0 512.000000 512.000000"
 preserveAspectRatio="xMidYMid meet">
<metadata>
Created by potrace 1.14, written by Peter Selinger 2001-2017
</metadata>
<g transform="translate(0.000000,512.000000) scale(0.100000,-0.100000)"
fill="#000000" stroke="none">
<path d="M475 4181 c-45 -21 -79 -62 -92 -112 -11 -43 -10 -2995 1 -3029 15
-45 49 -82 91 -101 41 -18 111 -19 2097 -16 l2054 2 41 27 c22 14 48 43 59 65
18 37 18 94 18 1543 0 1449 -1 1506 -18 1543 -11 22 -37 51 -59 65 l-41 27
-2055 2 c-1972 2 -2058 2 -2096 -16z m2783 -481 l2 -395 -1384 0 c-761 0
-1388 3 -1391 7 -4 4 -7 172 -7 375 l0 367 24 21 c23 20 28 20 1388 20 l1365
0 3 -395z m1363 374 c20 -20 20 -30 20 -370 0 -192 0 -360 0 -374 l-1 -25
-237 1 c-131 1 -241 2 -244 3 -4 0 -9 16 -11 33 -5 31 4 42 177 214 208 208
226 229 218 252 -8 21 -33 41 -52 42 -8 0 -107 -92 -220 -204 -191 -190 -208
-203 -231 -195 -70 28 -170 -31 -186 -108 -3 -17 -11 -33 -17 -35 -10 -4 -433
-3 -463 1 -8 1 -11 111 -11 389 0 213 1 389 3 392 1 3 280 5 618 5 610 0 616
0 637 -21z m-587 -733 c30 -25 18 -38 -34 -37 -55 1 -60 6 -31 35 21 21 41 22
65 2z m603 -144 c3 -4 5 -484 5 -1069 l0 -1063 -24 -20 c-24 -20 -24 -20
-2061 -20 l-2036 0 -22 21 -21 22 0 1053 c1 580 1 1059 1 1066 1 6 13 13 29
15 49 6 4123 0 4129 -5z"/>
<path d="M2098 3993 c-20 -23 -19 -49 3 -69 14 -12 41 -15 133 -15 63 1 122 4
130 7 25 10 31 52 11 74 -16 18 -32 20 -140 20 -104 0 -124 -3 -137 -17z"/>
<path d="M973 3828 c-20 -26 -22 -48 -5 -68 16 -19 28 -21 139 -22 86 -1 127
3 138 12 22 18 19 67 -4 80 -29 15 -256 13 -268 -2z"/>
<path d="M1345 3820 c-22 -25 -13 -66 17 -76 12 -4 68 -7 123 -7 55 0 111 3
123 7 30 10 39 51 17 76 -16 18 -32 20 -140 20 -108 0 -124 -2 -140 -20z"/>
<path d="M2096 3821 c-22 -24 -12 -68 17 -77 25 -9 221 -7 248 1 28 9 35 52
14 75 -16 18 -32 20 -140 20 -107 0 -124 -2 -139 -19z"/>
<path d="M2473 3825 c-18 -19 -16 -60 2 -75 10 -8 55 -13 137 -13 113 0 122 1
139 22 19 23 16 48 -9 69 -24 18 -253 16 -269 -3z"/>
<path d="M978 3658 c-25 -21 -28 -46 -9 -69 17 -21 26 -23 140 -22 130 1 151
8 151 49 0 46 -22 54 -149 54 -79 0 -122 -4 -133 -12z"/>
<path d="M1347 3652 c-23 -25 -21 -59 4 -73 23 -12 209 -17 250 -6 35 9 47 51
23 78 -15 17 -32 19 -139 19 -105 0 -124 -2 -138 -18z"/>
<path d="M1728 3659 c-22 -12 -24 -62 -3 -79 11 -9 54 -13 137 -13 113 0 123
2 139 22 19 24 16 48 -9 69 -19 15 -239 16 -264 1z"/>
<path d="M2096 3651 c-22 -24 -12 -68 17 -77 12 -4 74 -7 137 -7 97 1 116 4
127 19 18 25 16 48 -5 67 -15 14 -41 17 -139 17 -105 0 -122 -2 -137 -19z"/>
<path d="M2476 3654 c-20 -20 -21 -58 -1 -74 20 -17 248 -18 268 -1 25 20 27
51 6 72 -17 17 -34 19 -138 19 -95 0 -123 -3 -135 -16z"/>
<path d="M2851 3656 c-18 -22 -20 -50 -5 -70 12 -16 28 -19 140 -19 112 0 129
2 141 18 17 25 17 50 -3 69 -21 22 -255 23 -273 2z"/>
<path d="M595 3480 c-22 -24 -13 -68 15 -78 25 -9 217 -8 247 2 30 10 38 42
19 71 -16 24 -20 25 -140 25 -109 0 -125 -2 -141 -20z"/>
<path d="M978 3488 c-25 -21 -28 -46 -9 -69 17 -21 27 -23 137 -23 111 -1 121
0 142 21 19 20 21 26 11 45 -7 13 -17 26 -23 30 -20 13 -241 9 -258 -4z"/>
<path d="M1344 3475 c-19 -29 -12 -59 19 -71 17 -8 175 -11 245 -5 7 1 17 12
24 26 9 19 8 29 -6 50 -16 25 -19 25 -141 25 -121 0 -125 -1 -141 -25z"/>
<path d="M1728 3489 c-22 -12 -24 -62 -3 -79 22 -18 247 -19 269 -1 23 19 21
68 -3 81 -25 13 -240 13 -263 -1z"/>
<path d="M2094 3475 c-19 -29 -12 -59 19 -72 12 -5 73 -9 136 -8 98 2 116 5
128 20 18 26 16 49 -5 68 -15 14 -41 17 -140 17 -118 0 -122 -1 -138 -25z"/>
<path d="M2478 3486 c-10 -7 -18 -25 -18 -38 0 -45 22 -53 153 -52 112 0 121
2 138 23 19 23 16 48 -9 69 -22 17 -241 16 -264 -2z"/>
<path d="M2850 3480 c-32 -32 -24 -62 20 -77 39 -14 237 -8 255 7 20 17 19 53
-3 73 -15 14 -41 17 -135 17 -104 0 -119 -2 -137 -20z"/>
<path d="M3935 2883 c-244 -88 -278 -421 -57 -550 149 -88 333 -40 426 110 10
16 23 56 30 90 28 136 -33 265 -155 332 -68 37 -170 44 -244 18z m51 -189 c0
-100 6 -114 49 -114 43 0 50 15 51 110 1 50 4 93 7 96 8 9 60 -22 88 -53 63
-67 75 -146 35 -226 -79 -158 -297 -153 -366 8 -22 51 -21 126 3 170 25 48 87
99 127 104 3 1 5 -42 6 -95z"/>
<path d="M910 2882 c-38 -12 -40 -26 -40 -374 l0 -338 -72 -1 c-40 -1 -79 -1
-86 0 -27 4 -78 -20 -96 -45 -14 -20 -19 -44 -19 -103 0 -97 6 -115 47 -141
28 -16 50 -20 130 -20 l96 0 0 -308 c0 -294 1 -310 20 -327 24 -22 66 -13 75
16 4 12 7 156 7 320 l0 299 93 0 c52 0 105 4 119 10 42 15 60 55 62 133 2 84
-10 122 -43 144 -29 19 -41 21 -150 22 l-81 1 0 340 c0 187 -3 344 -7 350 -10
16 -39 28 -55 22z m232 -847 c8 -77 23 -72 -222 -72 l-220 0 0 51 0 51 219 0
219 1 4 -31z"/>
<path d="M1660 2882 c-37 -11 -40 -30 -40 -274 l0 -238 -99 1 c-55 0 -108 -4
-120 -10 -37 -20 -54 -68 -52 -151 2 -122 34 -147 186 -145 l85 1 0 -407 c0
-379 1 -408 18 -429 15 -18 25 -22 46 -16 15 4 30 15 34 26 4 10 7 199 7 419
-1 221 2 401 5 402 3 0 48 2 100 3 52 2 105 8 116 14 37 19 53 69 50 156 -2
75 -4 80 -34 107 -34 30 -40 31 -159 29 -61 -1 -72 1 -76 17 -3 10 -4 115 -3
233 1 118 -2 223 -6 232 -11 22 -39 37 -58 30z m235 -657 c-1 -24 -4 -47 -7
-51 -5 -5 -175 -7 -390 -5 l-48 1 0 50 0 50 223 0 223 0 -1 -45z"/>
<path d="M2410 2882 c-37 -13 -39 -32 -39 -292 0 -140 -1 -301 -1 -356 l0
-102 -82 0 c-126 0 -127 0 -159 -31 -28 -28 -29 -33 -29 -120 0 -79 3 -93 23
-116 29 -33 63 -41 165 -40 l82 1 1 -225 c0 -124 0 -254 -1 -288 -1 -50 2 -65
19 -82 25 -25 40 -26 66 -7 18 13 19 31 20 307 l0 294 80 1 c126 2 131 3 153
22 30 26 41 62 41 129 0 128 -28 155 -158 155 -47 0 -93 2 -101 4 -13 3 -15
48 -15 341 0 186 -1 350 -3 364 -4 28 -37 50 -62 41z m236 -902 l1 -50 -222 0
-221 0 -3 50 -2 50 223 0 223 0 1 -50z"/>
<path d="M3155 2878 c-11 -6 -22 -13 -25 -15 -3 -3 -6 -59 -7 -126 -1 -67 -2
-131 -2 -142 -1 -19 -8 -20 -107 -20 l-106 0 -29 -33 c-26 -29 -29 -39 -29
-106 0 -142 25 -166 174 -166 53 0 96 -3 97 -7 0 -5 1 -237 2 -516 2 -491 3
-509 21 -523 26 -19 42 -18 64 4 17 17 18 50 17 517 -1 275 1 506 3 513 3 8
33 12 104 12 99 0 100 0 132 33 31 30 33 37 35 108 4 139 -25 166 -177 166
l-97 0 0 134 c0 74 -4 140 -8 146 -15 23 -41 32 -62 21z m236 -407 c4 -1 6
-22 5 -48 l-1 -48 -221 -2 -220 -2 -1 47 c-1 26 3 49 7 52 6 4 407 5 431 1z"/>
<path d="M3965 2211 c-86 -22 -169 -92 -208 -173 -31 -64 -30 -197 1 -256 100
-187 327 -234 479 -98 203 182 90 514 -181 531 -33 2 -74 0 -91 -4z m148 -112
l28 -12 -66 -65 c-71 -70 -81 -100 -43 -126 12 -9 26 -16 31 -16 5 0 40 30 78
67 38 36 71 64 74 61 12 -12 23 -68 21 -109 -4 -98 -82 -179 -180 -187 -70 -6
-117 11 -164 57 -58 57 -75 132 -48 209 39 111 161 166 269 121z"/>
<path d="M3632 1305 c-29 -21 -33 -50 -10 -74 24 -27 50 -27 73 -1 38 42 -17
106 -63 75z"/>
<path d="M4013 1309 c-39 -15 -40 -69 -1 -90 25 -14 57 -2 67 24 16 41 -25 82
-66 66z"/>
<path d="M4392 1309 c-27 -10 -36 -31 -28 -64 9 -35 51 -44 78 -17 39 38 1
100 -50 81z"/>
</g>
</svg>
